<svg width="30" height="37" viewBox="0 0 30 37" fill="none" xmlns="http://www.w3.org/2000/svg">
    <path d="M13.55 29.3C13.55 30.8 13.3833 32.0167 13.05 32.95C12.75 33.85 12.3167 34.55 11.75 35.05C11.1833 35.55 10.5 35.8833 9.7 36.05C8.93333 36.2167 8.06667 36.3 7.1 36.3C6.1 36.3 5.18333 36.2167 4.35 36.05C3.55 35.8833 2.85 35.55 2.25 35.05C1.68333 34.55 1.25 33.85 0.95 32.95C0.65 32.0167 0.5 30.8 0.5 29.3V7C0.5 4.8 1.08333 3.16667 2.25 2.1C3.41667 0.999999 5.01667 0.449999 7.05 0.449999C9.08333 0.449999 10.6667 0.999999 11.8 2.1C12.9333 3.16667 13.5 4.8 13.5 7L13.55 29.3ZM7.05 4.95C6.28333 4.95 5.8 5.2 5.6 5.7C5.43333 6.16667 5.35 6.81667 5.35 7.65V28.65C5.35 29.7167 5.45 30.5167 5.65 31.05C5.88333 31.5833 6.35 31.85 7.05 31.85C7.75 31.85 8.2 31.5833 8.4 31.05C8.6 30.5167 8.7 29.7167 8.7 28.65V7.65C8.7 6.78333 8.61667 6.11666 8.45 5.65C8.28333 5.18333 7.81667 4.95 7.05 4.95Z" fill="white"/>
    <path d="M24.3645 7.75C24.3645 6.91667 24.2645 6.18333 24.0645 5.55C23.8978 4.91667 23.4311 4.6 22.6645 4.6C21.8978 4.6 21.4145 4.91667 21.2145 5.55C21.0478 6.15 20.9645 6.88333 20.9645 7.75V12.45H16.1645V6.55C16.1645 4.35 16.7478 2.81666 17.9145 1.95C19.0811 1.08333 20.6811 0.633333 22.7145 0.6C24.7478 0.566665 26.3311 1.13333 27.4645 2.3C28.5978 3.46666 29.1645 5.01666 29.1645 6.95V10.8C29.1645 12.4 28.9811 13.85 28.6145 15.15C28.2478 16.45 27.7811 17.65 27.2145 18.75C26.6478 19.8167 26.0311 20.8333 25.3645 21.8C24.6978 22.7667 24.0811 23.7333 23.5145 24.7C22.9478 25.6667 22.4645 26.6667 22.0645 27.7C21.6978 28.7 21.4978 29.8167 21.4645 31.05H29.7145V36H16.0645C16.0645 35 16.0645 34 16.0645 33C16.0645 31.9667 16.0978 30.95 16.1645 29.95C16.1645 27.9833 16.5811 26.2 17.4145 24.6C18.2811 22.9667 19.2311 21.4 20.2645 19.9C21.2978 18.3667 22.2311 16.8167 23.0645 15.25C23.9311 13.6833 24.3645 11.9667 24.3645 10.1V7.75Z" fill="#2DFAA3"/>
</svg>
