<svg width="30" height="37" viewBox="0 0 30 37" fill="none" xmlns="http://www.w3.org/2000/svg">
    <path d="M13.55 29.3C13.55 30.8 13.3833 32.0167 13.05 32.95C12.75 33.85 12.3167 34.55 11.75 35.05C11.1833 35.55 10.5 35.8833 9.7 36.05C8.93333 36.2167 8.06667 36.3 7.1 36.3C6.1 36.3 5.18333 36.2167 4.35 36.05C3.55 35.8833 2.85 35.55 2.25 35.05C1.68333 34.55 1.25 33.85 0.95 32.95C0.65 32.0167 0.5 30.8 0.5 29.3V7C0.5 4.8 1.08333 3.16667 2.25 2.1C3.41667 0.999999 5.01667 0.449999 7.05 0.449999C9.08333 0.449999 10.6667 0.999999 11.8 2.1C12.9333 3.16667 13.5 4.8 13.5 7L13.55 29.3ZM7.05 4.95C6.28333 4.95 5.8 5.2 5.6 5.7C5.43333 6.16667 5.35 6.81667 5.35 7.65V28.65C5.35 29.7167 5.45 30.5167 5.65 31.05C5.88333 31.5833 6.35 31.85 7.05 31.85C7.75 31.85 8.2 31.5833 8.4 31.05C8.6 30.5167 8.7 29.7167 8.7 28.65V7.65C8.7 6.78333 8.61667 6.11666 8.45 5.65C8.28333 5.18333 7.81667 4.95 7.05 4.95Z" fill="white"/>
    <path d="M24.8145 13.6C26.5811 13.6667 27.8311 14.1333 28.5645 15C29.2978 15.8333 29.6645 16.95 29.6645 18.35V29.3C29.6645 30.8 29.4645 32 29.0645 32.9C28.6978 33.8 28.1978 34.5 27.5645 35C26.9645 35.5 26.2645 35.8333 25.4645 36C24.6645 36.1667 23.8311 36.25 22.9645 36.25C21.9645 36.25 21.0645 36.1667 20.2645 36C19.4978 35.8333 18.8311 35.5167 18.2645 35.05C17.7311 34.55 17.3145 33.85 17.0145 32.95C16.7478 32.0167 16.5978 30.8 16.5645 29.3L16.4645 23.95H21.2145L21.2645 28.15C21.2645 28.6833 21.2645 29.1833 21.2645 29.65C21.2978 30.1167 21.3478 30.5167 21.4145 30.85C21.5145 31.15 21.6645 31.4 21.8645 31.6C22.0978 31.7667 22.4145 31.85 22.8145 31.85C23.5811 31.85 24.0145 31.5167 24.1145 30.85C24.2478 30.15 24.3145 29.25 24.3145 28.15V20C24.3145 18.2 24.0478 16.95 23.5145 16.25C23.0145 15.5167 22.0811 15.2667 20.7145 15.5L20.6145 12.3L25.1645 5.05H16.5145L16.4645 0.999998H29.1645V7.05L24.8145 13.3V13.6Z" fill="#2DFAA3"/>
</svg>
