<svg width="30" height="37" viewBox="0 0 30 37" fill="none" xmlns="http://www.w3.org/2000/svg">
    <path d="M13.55 29.3C13.55 30.8 13.3833 32.0167 13.05 32.95C12.75 33.85 12.3167 34.55 11.75 35.05C11.1833 35.55 10.5 35.8833 9.7 36.05C8.93333 36.2167 8.06667 36.3 7.1 36.3C6.1 36.3 5.18333 36.2167 4.35 36.05C3.55 35.8833 2.85 35.55 2.25 35.05C1.68333 34.55 1.25 33.85 0.95 32.95C0.65 32.0167 0.5 30.8 0.5 29.3V7C0.5 4.8 1.08333 3.16667 2.25 2.1C3.41667 0.999999 5.01667 0.449999 7.05 0.449999C9.08333 0.449999 10.6667 0.999999 11.8 2.1C12.9333 3.16667 13.5 4.8 13.5 7L13.55 29.3ZM7.05 4.95C6.28333 4.95 5.8 5.2 5.6 5.7C5.43333 6.16667 5.35 6.81667 5.35 7.65V28.65C5.35 29.7167 5.45 30.5167 5.65 31.05C5.88333 31.5833 6.35 31.85 7.05 31.85C7.75 31.85 8.2 31.5833 8.4 31.05C8.6 30.5167 8.7 29.7167 8.7 28.65V7.65C8.7 6.78333 8.61667 6.11666 8.45 5.65C8.28333 5.18333 7.81667 4.95 7.05 4.95Z" fill="white"/>
    <path d="M25.2145 10.9C25.7145 10.9 26.1811 10.9667 26.6145 11.1C27.0811 11.2 27.4978 11.4167 27.8645 11.75C28.2311 12.05 28.5145 12.4667 28.7145 13C28.9478 13.5333 29.0645 14.2333 29.0645 15.1V29.25C29.0645 30.75 28.8811 31.9667 28.5145 32.9C28.1811 33.8333 27.7145 34.55 27.1145 35.05C26.5145 35.55 25.8145 35.8833 25.0145 36.05C24.2478 36.2167 23.4311 36.3 22.5645 36.3C21.5645 36.3 20.6478 36.2167 19.8145 36.05C18.9811 35.8833 18.2645 35.55 17.6645 35.05C17.0645 34.55 16.5978 33.85 16.2645 32.95C15.9645 32.0167 15.8145 30.8 15.8145 29.3V26.35H20.8145V28.2C20.8145 29.2667 20.8811 30.15 21.0145 30.85C21.1811 31.5167 21.6978 31.85 22.5645 31.85C23.0311 31.85 23.3645 31.7667 23.5645 31.6C23.7978 31.4 23.9645 31.15 24.0645 30.85C24.1645 30.5167 24.2145 30.1333 24.2145 29.7C24.2145 29.2333 24.2145 28.7333 24.2145 28.2V16.7C24.2145 16.5667 24.1978 16.4 24.1645 16.2C24.1645 15.9667 24.0978 15.7667 23.9645 15.6C23.8645 15.4 23.6978 15.25 23.4645 15.15C23.2645 15.0167 22.9645 15 22.5645 15.1C22.0311 15.2333 21.6145 15.6333 21.3145 16.3C21.0145 16.9333 20.8645 17.6333 20.8645 18.4H15.8145V0.949998H29.0645V6.05H20.8145V14.65L21.1645 14.6C21.2311 14.5667 21.2811 14.3667 21.3145 14C21.3811 13.6 21.5311 13.1833 21.7645 12.75C22.0311 12.2833 22.4145 11.8667 22.9145 11.5C23.4478 11.1 24.2145 10.9 25.2145 10.9Z" fill="#2DFAA3"/>
</svg>