<svg width="31" height="37" viewBox="0 0 31 37" fill="none" xmlns="http://www.w3.org/2000/svg">
    <path d="M13.55 29.3C13.55 30.8 13.3833 32.0167 13.05 32.95C12.75 33.85 12.3167 34.55 11.75 35.05C11.1833 35.55 10.5 35.8833 9.7 36.05C8.93333 36.2167 8.06667 36.3 7.1 36.3C6.1 36.3 5.18333 36.2167 4.35 36.05C3.55 35.8833 2.85 35.55 2.25 35.05C1.68333 34.55 1.25 33.85 0.95 32.95C0.65 32.0167 0.5 30.8 0.5 29.3V7C0.5 4.8 1.08333 3.16667 2.25 2.1C3.41667 0.999999 5.01667 0.449999 7.05 0.449999C9.08333 0.449999 10.6667 0.999999 11.8 2.1C12.9333 3.16667 13.5 4.8 13.5 7L13.55 29.3ZM7.05 4.95C6.28333 4.95 5.8 5.2 5.6 5.7C5.43333 6.16667 5.35 6.81667 5.35 7.65V28.65C5.35 29.7167 5.45 30.5167 5.65 31.05C5.88333 31.5833 6.35 31.85 7.05 31.85C7.75 31.85 8.2 31.5833 8.4 31.05C8.6 30.5167 8.7 29.7167 8.7 28.65V7.65C8.7 6.78333 8.61667 6.11666 8.45 5.65C8.28333 5.18333 7.81667 4.95 7.05 4.95Z" fill="white"/>
    <path d="M28.5145 22.4H30.1645V27.5H28.5145V36H23.5145V27.5H16.0645L15.5645 23.1L19.5645 0.999998H28.4645L28.5145 22.4ZM23.5145 22.4V5.45H23.1645L20.5645 22.4H23.5145Z" fill="#2DFAA3"/>
</svg>
